<svg xmlns="http://www.w3.org/2000/svg" width="434" height="434" viewBox="0 0 434 434">
  <g id="Group_6" data-name="Group 6" transform="translate(-634.531 -166.108)">
    <path id="Path_1" data-name="Path 1" d="M217,0C336.846,0,434,97.154,434,217S336.846,434,217,434,0,336.846,0,217,97.154,0,217,0Z" transform="translate(634.531 166.108)"/>
    <g id="Group_1" data-name="Group 1" transform="translate(617.691 5.783)">
      <g id="Group_2" data-name="Group 2" transform="translate(-629.691 0.217)">
        <rect id="Rectangle_1" data-name="Rectangle 1" width="42" height="26" rx="4" transform="translate(801.531 389.108)" fill="#fff"/>
        <rect id="Rectangle_2" data-name="Rectangle 2" width="42" height="23" rx="2" transform="translate(822.531 410.108)" fill="#fff"/>
        <rect id="Rectangle_3" data-name="Rectangle 3" width="42" height="24" rx="2" transform="translate(843.531 431.108)" fill="#fff"/>
        <rect id="Rectangle_4" data-name="Rectangle 4" width="42" height="26" rx="2" transform="translate(864.531 452.108)" fill="#fff"/>
        <rect id="Rectangle_5" data-name="Rectangle 5" width="42" height="21" rx="2" transform="translate(885.531 472.108)" fill="#fff"/>
        <rect id="Rectangle_6" data-name="Rectangle 6" width="29.389" height="169" transform="matrix(0.695, -0.719, 0.719, 0.695, 782.605, 403.763)"/>
      </g>
      <path id="Path_41" data-name="Path 41" d="M138.813,422.268a25.238,25.238,0,0,1,.237,6.63c-.045,1.8-1.589,2.294-2.9,2.887a53.136,53.136,0,0,1-22.764,4.434A61.609,61.609,0,0,1,76.8,422.994,59.207,59.207,0,0,1,54.98,392.241,49.3,49.3,0,0,1,57.065,357.5a55.952,55.952,0,0,1,10.33-15.073,65.588,65.588,0,0,1,21.47-15.786c7.184-3.379,14.862-3.56,22.569-3.53a99.588,99.588,0,0,1,31.546,6.605c4.838,1.64,9.57,3.9,14.475,5.4,15.463,4.782,29.985,12.139,45.6,16.47,6.884,1.91,13.6,4.454,20.665,5.72,11.134,2,22.191,4.61,33.59,4.5a94.731,94.731,0,0,0,33.94-6.981,127.427,127.427,0,0,0,16.07-6.728A171.029,171.029,0,0,0,330.3,334.4c3.5-2.759,6.625-6.029,10.246-8.607A199.477,199.477,0,0,0,363.9,307.071c8.37-8.092,16.941-15.983,25.091-24.306,2.032-2.074,4.214-4.014,6.386-5.946.885-.788,1.8-2.135,3.179-1.305a4.643,4.643,0,0,1,2.107,3.655,5.288,5.288,0,0,1-1.467,3.981c-3.062,3.546-6.294,6.937-9.623,10.232-13.172,13.033-26.614,25.77-40.919,37.578-3.619,2.978-6.747,6.569-10.519,9.3A152.407,152.407,0,0,1,294.3,363.606a159.137,159.137,0,0,1-30.594,7.043,73.454,73.454,0,0,1-21.712-1.414c-9.592-1.845-19.3-3.2-28.777-5.486a270.976,270.976,0,0,1-38.614-13c-8.657-3.53-17.589-6.294-26.344-9.539-6.811-2.525-13.534-5.211-20.526-7.276a56.667,56.667,0,0,0-33.481.376,33.529,33.529,0,0,0-11.638,6.525,55.581,55.581,0,0,0-16.493,20.434,38.656,38.656,0,0,0-.994,29.487A53.834,53.834,0,0,0,99.8,424.517c12.331,4.217,24.373,2.313,36.348-1.534a5.539,5.539,0,0,1,2.661-.715Z" transform="translate(0 9.498)" fill="#fff"/>
      <path id="Path_42" data-name="Path 42" d="M102.766,338.977c-4.061-1.556-8.22-3.1-12.331-4.749-1.67-.674-1.553-2.324-1.559-3.766-.036-5.623-.025-11.246-.031-16.866Q88.82,294.7,88.8,275.8c0-4.5.921-5.62,5.5-5.478,14.99.468,29.982.537,44.974.523,13.748,0,27.493-.1,41.242.022a92.314,92.314,0,0,1,53.425,17.281,100.143,100.143,0,0,1,20.15,18.079,80.642,80.642,0,0,1,13.848,24.251,25.324,25.324,0,0,1,.952,3.29,3.538,3.538,0,0,1-1.948,4.384c-2.65,1.414-4.754,3.713-7.58,4.9-3,1.264-3.176,1.225-4.276-1.754a145.39,145.39,0,0,0-5.729-14.823,72.186,72.186,0,0,0-36.187-33.86,89.966,89.966,0,0,0-37.926-7.652c-22.7,0-45.406-.086-68.109-.092-3.964,0-3.858.095-3.833,3.919q.159,23.265.178,46.536a5.139,5.139,0,0,1-.715,3.641Z" transform="translate(60.047 1.267)" fill="#fff"/>
      <path id="Path_44" data-name="Path 44" d="M89.438,304.212a5.617,5.617,0,0,1,4.214.584,29.973,29.973,0,0,0,7.176,2.054c2.252.315,2.934,1.542,2.9,3.6-.075,4.576-.1,9.155-.1,13.729q-.044,41.976-.061,83.956c0,3.535.095,7.068.134,10.605a8.409,8.409,0,0,1-1.7,5.239,5.662,5.662,0,0,1-9.1,1.036,9.417,9.417,0,0,1-3.722-7.176c-.557-12.9-.487-25.8-.22-38.692.457-21.737-.278-43.466-.036-65.2a56.061,56.061,0,0,1,.518-9.74Z" transform="translate(59.973 57.468)" fill="#fff"/>
      <path id="Path_45" data-name="Path 45" d="M133.057,367.3c5.673-3.463,11.493-5.74,17-8.629a71.686,71.686,0,0,0,17.976-14.711c7.265-7.549,10.672-16.916,13.361-26.664a6.124,6.124,0,0,1,4.9-5.233,31.331,31.331,0,0,0,11.855-6.43,26.055,26.055,0,0,1-.971,10.733c-2.424,10.672-5.236,21.194-11.61,30.372a48.459,48.459,0,0,1-8.217,9.347C171.6,361.016,166.363,366.645,159.4,370c-4.4,2.118-8.907,4-13.361,6a4.512,4.512,0,0,1-5.386-1.08A105.344,105.344,0,0,0,133.057,367.3Z" transform="translate(133.801 60.127)" fill="#fff"/>
      <path id="Path_46" data-name="Path 46" d="M182.958,276.962a7.1,7.1,0,0,1,7.4-7.4,7.324,7.324,0,0,1,7.58,7.942,8.908,8.908,0,0,1-7.441,7.889,8.423,8.423,0,0,1-7.541-8.429Z" transform="translate(216.95)" fill="#fff"/>
    </g>
  </g>
</svg>
