<svg xmlns="http://www.w3.org/2000/svg" width="415.547" height="77.528" viewBox="0 0 415.547 77.528">
  <g id="Group_6" data-name="Group 6" transform="translate(-52.766 -269.554)">
    <g id="Group_5" data-name="Group 5" transform="translate(163.252 311.755)">
      <path id="Path_32" data-name="Path 32"
        d="M359.039,330.908c-4.475,3.886-5.891,9.519-9.321,14.087l-10.225-13.46-.589.142c-.916,5.466-.133,11.051-.71,16.43-.767.676-1.542.378-2.252.469-2.007.256-2.789-.642-2.924-2.631-.5-7.4-.171-14.088-.422-22.231.145-3.459-.173-4.5.1-6.706.209-1.7-.112-4.736,1.889-2.751l14.378,19.752c1.983-3.315,3.8-6.288,5.552-9.3,1.9-3.265,4.773-5.782,6.828-8.941a2.575,2.575,0,0,1,2.63-1.239c1.253.361.97,1.654,1.077,2.607.655,5.89.958,11.8,1.048,17.728.052,3.423.223,6.844.389,10.264.16,3.287.076,3.4-3.3,3.382-.278,0-.557-.021-.832,0-1.569.118-2.048-.681-2.152-2.162a107.541,107.541,0,0,1-.474-12.471,3.865,3.865,0,0,0-.69-2.969Z"
        transform="translate(-175.025 -313.608)"/>
      <path id="Path_1" data-name="Path 1"
        d="M-591.316-411.687c-1.774,0-3.546-.081-5.045-.16-.151-5.189-.075-10.415,0-15.469.089-6.1.182-12.4-.125-18.678,1.054-.02,2.119-.06,3.15-.1,1.456-.054,2.96-.11,4.414-.11,5.069,0,10.41.61,15.124,5.036a16.259,16.259,0,0,1,5.152,12.7,16.256,16.256,0,0,1-6.368,12.137C-580.569-412.238-586.372-411.687-591.316-411.687Zm3.552-28.1c-.576,0-1.167.009-1.738.018h-.01l-.832.012a126.945,126.945,0,0,1-.24,21.188c1.241.1,2.257.148,3.2.148h.023c3.525,0,7.935-.594,10.768-5.222a9.969,9.969,0,0,0-.5-11.873C-580.009-439.458-583.964-439.787-587.764-439.787Z"
        transform="translate(675.606 446.756)"  />
      <path id="Path_34" data-name="Path 34"
        d="M227.222,333.354V314.787a15.708,15.708,0,0,1,5.741.086v33.994c-7.729-5.284-12.212-14.169-20.886-19.74v19.74l-6.166-.706v-33.8l.636-.316,19.906,19.69Z"
        transform="translate(-169.696 -313.626)"  />
      <path id="Path_35" data-name="Path 35"
        d="M439.936,334.149c0-4.131.024-7.621-.01-11.112-.018-1.942-.142-3.882-.2-5.821-.108-3.513.034-3.586,3.457-3.5,1.711.042,2.411.618,2.516,2.424.48,8.225.1,16.452.236,24.677.039,2.383.007,4.769.007,7.867-7.605-6.29-13.785-13.166-20.866-19.952a34.971,34.971,0,0,0-.087,7.485c.277,3.138.178,6.284.378,9.416.133,2.091-.635,2.922-2.683,2.691a7.419,7.419,0,0,1-3.083-.408c-.735-10.957-.23-22.083-.04-33.812C427.054,320.214,432.725,327.5,439.936,334.149Z"
        transform="translate(-178.67 -313.612)"  />
      <path id="Path_36" data-name="Path 36"
        d="M316,348.758H293.489c-.418-11.511.563-23.008-.227-34.751h22.069c.656,1.9-.132,3.748-.395,5.846-4.963,1.082-10.046.563-15.236.764a38.1,38.1,0,0,0-.032,7.274c4.135.678,8.218-.086,12.323.535a16.589,16.589,0,0,1,.08,6H300.327c-.3.451-.467.6-.488.759-.864,6.685-.862,6.66,5.854,6.648,3.143-.006,6.287.1,9.43.171a6.624,6.624,0,0,1,1.031.223C316.069,344.287,316.4,346.362,316,348.758Z"
        transform="translate(-173.371 -313.625)"  />
      <path id="Path_37" data-name="Path 37"
        d="M168.1,314.453c2.766-.551,18.406-.672,21.367-.144.542,1.757.194,3.56.206,5.464-5.065,1.28-10.094.442-15.188.949a30.46,30.46,0,0,0-.167,7.633c4.115.544,8.178-.02,12.119.349.176.224.373.356.387.507.534,5.311.531,5.31-4.663,5.294-1.945-.007-3.89.046-5.832-.022-1.565-.055-2.17.652-2.127,2.156.048,1.644.011,3.29.011,5.089a94.538,94.538,0,0,0,10.049.207c6.888.125,5.725.422,5.713,6.767H168.1Z"
        transform="translate(-168.105 -313.623)"  />
      <path id="Path_38" data-name="Path 38"
        d="M387.948,320.57c-.992,7.913-.977,7.932,6.2,8.077l1.387.027c4.8.083,5.1.5,3.913,5.638-2.682.4-5.44.1-8.181.171-2.876.077-3.01.149-3,2.963a14.642,14.642,0,0,0,.317,4.583c3.38,0,6.858-.006,10.335,0,4.757.009,4.761.012,4.871,4.625.01.454-.059.91-.089,1.338-3.588,1.191-15.08,1.287-20.369.193-.883-2.944-1.44-28.87-.68-33.9a154.917,154.917,0,0,1,20.148-.057c.209.372.362.522.374.683.4,5.658.4,5.658-5.16,5.656Z"
        transform="translate(-177.117 -313.622)"  />
      <path id="Path_39" data-name="Path 39"
        d="M460.767,313.818c8.446-.408,16.54-.018,24.706.246v6.178c-3.071.72-6.047.024-9.2.513-1.081,9.039,1.153,18.179-.268,27.1-.346.216-.492.38-.654.4-5.789.581-5.79.58-5.794-5.223,0-5.737.027-11.474-.021-17.211-.052-6.08.586-5.139-5.115-5.243a10.574,10.574,0,0,1-3.449-.252C460.4,318.313,460.7,316.235,460.767,313.818Z"
        transform="translate(-180.412 -313.609)"  />
    </g>
    <path id="Path_41" data-name="Path 41"
      d="M83.678,328.068a9.067,9.067,0,0,1,.085,2.382c-.016.648-.571.824-1.042,1.037a19.089,19.089,0,0,1-8.178,1.593A22.133,22.133,0,0,1,61.4,328.329a21.27,21.27,0,0,1-7.839-11.048A17.709,17.709,0,0,1,54.31,304.8a20.1,20.1,0,0,1,3.711-5.415,23.562,23.562,0,0,1,7.713-5.671c2.581-1.214,5.339-1.279,8.108-1.268a35.778,35.778,0,0,1,11.333,2.373c1.738.589,3.438,1.4,5.2,1.941,5.555,1.718,10.772,4.361,16.382,5.917,2.473.686,4.884,1.6,7.424,2.055,4,.717,7.972,1.656,12.067,1.616a34.033,34.033,0,0,0,12.193-2.508,45.781,45.781,0,0,0,5.773-2.417,61.441,61.441,0,0,0,8.255-4.923c1.259-.991,2.38-2.166,3.681-3.092a71.66,71.66,0,0,0,8.39-6.724c3.007-2.907,6.086-5.742,9.014-8.732.73-.745,1.514-1.442,2.294-2.136.318-.283.648-.767,1.142-.469a1.668,1.668,0,0,1,.757,1.313,1.9,1.9,0,0,1-.527,1.43c-1.1,1.274-2.261,2.492-3.457,3.676-4.732,4.682-9.561,9.258-14.7,13.5-1.3,1.07-2.424,2.36-3.779,3.341a54.751,54.751,0,0,1-15.749,8.387,57.171,57.171,0,0,1-10.991,2.53,26.387,26.387,0,0,1-7.8-.508c-3.446-.663-6.932-1.15-10.338-1.971a97.346,97.346,0,0,1-13.872-4.67c-3.11-1.268-6.319-2.261-9.464-3.427-2.447-.907-4.862-1.872-7.374-2.614a20.358,20.358,0,0,0-12.028.135,12.045,12.045,0,0,0-4.181,2.344,19.967,19.967,0,0,0-5.925,7.341,13.887,13.887,0,0,0-.357,10.593,19.34,19.34,0,0,0,12.459,12.129c4.43,1.515,8.756.831,13.058-.551a1.99,1.99,0,0,1,.956-.257Z"
      transform="translate(0 -0.24)"  />
    <path id="Path_42" data-name="Path 42"
      d="M93.816,294.981c-1.459-.559-2.953-1.113-4.43-1.706-.6-.242-.558-.835-.56-1.353-.013-2.02-.009-4.04-.011-6.059q-.009-6.788-.017-13.577c0-1.616.331-2.019,1.976-1.968,5.385.168,10.771.193,16.157.188,4.939,0,9.877-.036,14.816.008a33.164,33.164,0,0,1,19.193,6.208,35.975,35.975,0,0,1,7.239,6.495,28.97,28.97,0,0,1,4.975,8.712,9.1,9.1,0,0,1,.342,1.182,1.271,1.271,0,0,1-.7,1.575c-.952.508-1.708,1.334-2.723,1.762-1.077.454-1.141.44-1.536-.63a52.234,52.234,0,0,0-2.058-5.325,25.933,25.933,0,0,0-13-12.164,32.32,32.32,0,0,0-13.625-2.749c-8.156,0-16.312-.031-24.468-.033-1.424,0-1.386.034-1.377,1.408q.057,8.358.064,16.718a1.846,1.846,0,0,1-.257,1.308Z"
      transform="translate(-1.516 -0.032)"  />
    <path id="Path_43" data-name="Path 43"
      d="M102.241,313.614a10.673,10.673,0,0,1,5.836-1.2,2.543,2.543,0,0,1,1.912.764c3.9,3.932,8.336,7.262,12.421,10.99,2.536,2.313,5.311,4.362,7.933,6.586,2.475,2.1,4.9,4.266,7.331,6.412q4.792,4.224,9.571,8.464c.084.074.186.128.266.2,1.145,1.084.992,2.162-.513,2.566-1.927.517-3.867.761-5.588-.8-2.437-2.2-5.066-4.2-7.415-6.49-4.536-4.413-9.643-8.151-14.314-12.4-2.289-2.083-4.585-4.177-7.029-6.068-2.807-2.172-5.271-4.754-8.237-6.73A6.606,6.606,0,0,1,102.241,313.614Z"
      transform="translate(-2.082 -1.803)"  />
    <path id="Path_44" data-name="Path 44"
      d="M89,304.1a2.018,2.018,0,0,1,1.514.21,10.768,10.768,0,0,0,2.578.738c.809.113,1.054.554,1.041,1.294-.027,1.644-.036,3.289-.037,4.932q-.016,15.08-.022,30.161c0,1.27.034,2.539.048,3.81a3.021,3.021,0,0,1-.609,1.882,2.034,2.034,0,0,1-3.27.372,3.383,3.383,0,0,1-1.337-2.578c-.2-4.633-.175-9.268-.079-13.9.164-7.809-.1-15.615-.013-23.422A20.14,20.14,0,0,1,89,304.1Z"
      transform="translate(-1.515 -1.45)"  />
    <path id="Path_45" data-name="Path 45"
      d="M133.057,327.788c2.038-1.244,4.129-2.062,6.107-3.1a25.753,25.753,0,0,0,6.458-5.285c2.61-2.712,3.834-6.077,4.8-9.579a2.2,2.2,0,0,1,1.762-1.88,11.256,11.256,0,0,0,4.259-2.31,9.36,9.36,0,0,1-.349,3.856c-.871,3.834-1.881,7.614-4.171,10.911a17.407,17.407,0,0,1-2.952,3.358c-2.068,1.771-3.949,3.793-6.45,5-1.581.761-3.2,1.436-4.8,2.155a1.621,1.621,0,0,1-1.935-.388,37.848,37.848,0,0,0-2.729-2.738Z"
      transform="translate(-3.379 -1.518)"  />
    <path id="Path_46" data-name="Path 46"
      d="M182.954,272.215a2.552,2.552,0,0,1,2.659-2.659,2.631,2.631,0,0,1,2.723,2.853,3.2,3.2,0,0,1-2.673,2.834,3.026,3.026,0,0,1-2.709-3.028Z"
      transform="translate(-5.478)"  />
  </g>
</svg>