<svg id="visual"  width="960" height="540" xmlns="http://www.w3.org/2000/svg"
    xmlns:xlink="http://www.w3.org/1999/xlink" version="1.1" aspectRatio="none"
    preserveAspectRatio="none">
    <path
        d="M0 366L22.8 370.3C45.7 374.7 91.3 383.3 137 375.5C182.7 367.7 228.3 343.3 274 344.7C319.7 346 365.3 373 411.2 375.3C457 377.7 503 355.3 548.8 348.5C594.7 341.7 640.3 350.3 686 356.2C731.7 362 777.3 365 823 371.8C868.7 378.7 914.3 389.3 937.2 394.7L960 400L960 541L937.2 541C914.3 541 868.7 541 823 541C777.3 541 731.7 541 686 541C640.3 541 594.7 541 548.8 541C503 541 457 541 411.2 541C365.3 541 319.7 541 274 541C228.3 541 182.7 541 137 541C91.3 541 45.7 541 22.8 541L0 541Z"
        fill="#000000"></path>
    <path
        d="M0 432L22.8 428.5C45.7 425 91.3 418 137 412.8C182.7 407.7 228.3 404.3 274 401.5C319.7 398.7 365.3 396.3 411.2 389.8C457 383.3 503 372.7 548.8 367.5C594.7 362.3 640.3 362.7 686 373.2C731.7 383.7 777.3 404.3 823 410.5C868.7 416.7 914.3 408.3 937.2 404.2L960 400L960 541L937.2 541C914.3 541 868.7 541 823 541C777.3 541 731.7 541 686 541C640.3 541 594.7 541 548.8 541C503 541 457 541 411.2 541C365.3 541 319.7 541 274 541C228.3 541 182.7 541 137 541C91.3 541 45.7 541 22.8 541L0 541Z"
        fill="#3b3b3b"></path>
    <path
        d="M0 437L22.8 438.5C45.7 440 91.3 443 137 442.5C182.7 442 228.3 438 274 439.7C319.7 441.3 365.3 448.7 411.2 452.3C457 456 503 456 548.8 451.2C594.7 446.3 640.3 436.7 686 435.5C731.7 434.3 777.3 441.7 823 440.2C868.7 438.7 914.3 428.3 937.2 423.2L960 418L960 541L937.2 541C914.3 541 868.7 541 823 541C777.3 541 731.7 541 686 541C640.3 541 594.7 541 548.8 541C503 541 457 541 411.2 541C365.3 541 319.7 541 274 541C228.3 541 182.7 541 137 541C91.3 541 45.7 541 22.8 541L0 541Z"
        fill="#777777"></path>
    <path
        d="M0 471L22.8 467.2C45.7 463.3 91.3 455.7 137 451C182.7 446.3 228.3 444.7 274 444C319.7 443.3 365.3 443.7 411.2 443.2C457 442.7 503 441.3 548.8 446.7C594.7 452 640.3 464 686 468.7C731.7 473.3 777.3 470.7 823 466.5C868.7 462.3 914.3 456.7 937.2 453.8L960 451L960 541L937.2 541C914.3 541 868.7 541 823 541C777.3 541 731.7 541 686 541C640.3 541 594.7 541 548.8 541C503 541 457 541 411.2 541C365.3 541 319.7 541 274 541C228.3 541 182.7 541 137 541C91.3 541 45.7 541 22.8 541L0 541Z"
        fill="#b9b9b9"></path>
    <path
        d="M0 494L22.8 492.7C45.7 491.3 91.3 488.7 137 485C182.7 481.3 228.3 476.7 274 478.2C319.7 479.7 365.3 487.3 411.2 488C457 488.7 503 482.3 548.8 478.5C594.7 474.7 640.3 473.3 686 479.2C731.7 485 777.3 498 823 503.3C868.7 508.7 914.3 506.3 937.2 505.2L960 504L960 541L937.2 541C914.3 541 868.7 541 823 541C777.3 541 731.7 541 686 541C640.3 541 594.7 541 548.8 541C503 541 457 541 411.2 541C365.3 541 319.7 541 274 541C228.3 541 182.7 541 137 541C91.3 541 45.7 541 22.8 541L0 541Z"
        fill="#ffffff"></path>
</svg>