<svg id="visual" viewBox="0 0 900 600" width="900" height="600" xmlns="http://www.w3.org/2000/svg" xmlns:xlink="http://www.w3.org/1999/xlink" version="1.1"><path d="M789 600L791.5 580C794 560 799 520 784.8 480C770.7 440 737.3 400 709.5 360C681.7 320 659.3 280 649 240C638.7 200 640.3 160 648.2 120C656 80 670 40 677 20L684 0L900 0L900 20C900 40 900 80 900 120C900 160 900 200 900 240C900 280 900 320 900 360C900 400 900 440 900 480C900 520 900 560 900 580L900 600Z" fill="#7c00ff"></path><path d="M723 600L720 580C717 560 711 520 718.5 480C726 440 747 400 755.2 360C763.3 320 758.7 280 767.7 240C776.7 200 799.3 160 795.8 120C792.3 80 762.7 40 747.8 20L733 0L900 0L900 20C900 40 900 80 900 120C900 160 900 200 900 240C900 280 900 320 900 360C900 400 900 440 900 480C900 520 900 560 900 580L900 600Z" fill="#007cff"></path><path d="M774 600L787.3 580C800.7 560 827.3 520 836.8 480C846.3 440 838.7 400 826 360C813.3 320 795.7 280 797.5 240C799.3 200 820.7 160 830 120C839.3 80 836.7 40 835.3 20L834 0L900 0L900 20C900 40 900 80 900 120C900 160 900 200 900 240C900 280 900 320 900 360C900 400 900 440 900 480C900 520 900 560 900 580L900 600Z" fill="#4facf7"></path></svg>