<svg id="visual" viewBox="0 0 960 540" width="960" height="540" xmlns="http://www.w3.org/2000/svg" xmlns:xlink="http://www.w3.org/1999/xlink" version="1.1"><path d="M0 125L80 124.2C160 123.3 320 121.7 480 121.7C640 121.7 800 123.3 880 124.2L960 125L960 0L880 0C800 0 640 0 480 0C320 0 160 0 80 0L0 0Z" fill="#3d68b8"></path><path d="M0 168L80 170.8C160 173.7 320 179.3 480 177.7C640 176 800 167 880 162.5L960 158L960 123L880 122.2C800 121.3 640 119.7 480 119.7C320 119.7 160 121.3 80 122.2L0 123Z" fill="#2150a3"></path><path d="M0 228L80 237.8C160 247.7 320 267.3 480 271.8C640 276.3 800 265.7 880 260.3L960 255L960 156L880 160.5C800 165 640 174 480 175.7C320 177.3 160 171.7 80 168.8L0 166Z" fill="#053e8d"></path><path d="M0 309L80 313.5C160 318 320 327 480 332.3C640 337.7 800 339.3 880 340.2L960 341L960 253L880 258.3C800 263.7 640 274.3 480 269.8C320 265.3 160 245.7 80 235.8L0 226Z" fill="#003475"></path><path d="M0 401L80 401.8C160 402.7 320 404.3 480 409.7C640 415 800 424 880 428.5L960 433L960 339L880 338.2C800 337.3 640 335.7 480 330.3C320 325 160 316 80 311.5L0 307Z" fill="#003270"></path><path d="M0 449L80 447.2C160 445.3 320 441.7 480 445.3C640 449 800 460 880 465.5L960 471L960 431L880 426.5C800 422 640 413 480 407.7C320 402.3 160 400.7 80 399.8L0 399Z" fill="#003475"></path><path d="M0 482L80 480.2C160 478.3 320 474.7 480 476.3C640 478 800 485 880 488.5L960 492L960 469L880 463.5C800 458 640 447 480 443.3C320 439.7 160 443.3 80 445.2L0 447Z" fill="#053e8d"></path><path d="M0 509L80 509.8C160 510.7 320 512.3 480 513.2C640 514 800 514 880 514L960 514L960 490L880 486.5C800 483 640 476 480 474.3C320 472.7 160 476.3 80 478.2L0 480Z" fill="#2150a3"></path><path d="M0 541L80 541C160 541 320 541 480 541C640 541 800 541 880 541L960 541L960 512L880 512C800 512 640 512 480 511.2C320 510.3 160 508.7 80 507.8L0 507Z" fill="#3d68b8"></path></svg>